<svg xmlns="http://www.w3.org/2000/svg" fill="none" viewBox="0 0 24 24" width="24" height="24" role="img" class="_endAccessory_jps6h_207 _icon_jps6h_201"><g fill="currentColor" clip-path="url(#clip0_1395_7)"><path d="M21 12.005a.8.8 0 0 1-.812.788H12.92l1.435 1.435a.799.799 0 1 1-1.131 1.13l-2.73-2.728a.8.8 0 0 1 .004-1.277l2.726-2.725a.8.8 0 1 1 1.13 1.13l-1.434 1.435h7.27a.8.8 0 0 1 .81.812"></path><path d="M16.761 18.553c.292.402.205.97-.224 1.22a9.001 9.001 0 1 1 0-15.546c.429.25.516.818.224 1.22s-.853.486-1.288.246a7.2 7.2 0 1 0 0 12.614c.435-.24.996-.156 1.288.246"></path></g><defs><clipPath id="clip0_1395_7"><path fill="#fff" d="M0 0h24v24H0z"></path></clipPath></defs></svg>