<svg height="100%" viewBox="0 0 28 24" fill="none" xmlns="http://www.w3.org/2000/svg" class="LogoIcon_logo__Yu6Ww Logo_icon__9QL4o"><path d="M15.0815 1.40689C15.2467 1.69275 15.2467 2.04502 15.0816 2.33093L6.02663 18.0147C5.86162 18.3005 5.55665 18.4765 5.22662 18.4765H4.12761C3.41636 18.4765 2.97192 17.7065 3.32775 17.0906L12.9356 0.461633C13.2912 -0.153877 14.1797 -0.153878 14.5353 0.461632L15.0815 1.40689Z" fill="currentColor"></path><path d="M0.925158 24C0.213901 24 -0.230536 23.2299 0.12529 22.6141L0.658122 21.6919C0.823676 21.4053 1.12986 21.2292 1.46078 21.2302L6.78095 21.2463C7.11148 21.2473 7.41735 21.0716 7.58305 20.7856L16.1486 6.00144C16.5047 5.38678 17.3924 5.38731 17.7478 6.00239L18.2856 6.93325C18.4507 7.2189 18.4509 7.57088 18.2861 7.85671L12.4321 18.0133C12.2669 18.2999 12.2676 18.6529 12.4338 18.9389L13.4979 20.7692C13.6633 21.0536 13.9675 21.2286 14.2966 21.2286H15.3651C16.0762 21.2286 16.5207 20.4588 16.1651 19.843L15.632 18.9195C15.467 18.6337 15.467 18.2815 15.632 17.9957L19.3532 11.5503C19.7087 10.9346 20.5974 10.9344 20.9531 11.55L24.1432 17.0714C24.499 17.6872 24.0546 18.4573 23.3433 18.4573H22.3029C21.9744 18.4573 21.6705 18.2828 21.505 17.999L20.9537 17.0539C20.5972 16.4428 19.7143 16.4428 19.3578 17.0539L18.8106 17.9918C18.6429 18.2795 18.6429 18.6351 18.8106 18.9228L19.8884 20.7703C20.0539 21.0541 20.3578 21.2286 20.6863 21.2286H26.012C26.342 21.2286 26.6468 21.4046 26.8119 21.6903L27.3457 22.6141C27.7015 23.2299 27.257 24 26.5458 24L12.6956 24C12.3671 24 12.0633 23.8254 11.8977 23.5416L11.3464 22.5965C10.9899 21.9855 10.107 21.9855 9.75051 22.5966L9.1992 23.5417C9.03365 23.8255 8.72982 24 8.40125 24H0.925158Z" fill="currentColor"></path></svg>