<svg xmlns="http://www.w3.org/2000/svg" fill="none" viewBox="0 0 24 24" width="24" height="24" role="img" class="_icon_1rb4g_14"><path fill="currentColor" fill-rule="evenodd" d="M11.065 5.618a.18.18 0 0 0-.157-.052A6.51 6.51 0 0 0 5.5 11.987c0 3.597 2.91 6.513 6.5 6.513s6.5-2.916 6.5-6.513a6.51 6.51 0 0 0-5.903-6.485.01.01 0 0 0-.01.014c.142.26.368.575.368.908 0 .287-.194.57-.302.82a.01.01 0 0 0 .008.013 4.774 4.774 0 0 1 4.106 4.73A4.77 4.77 0 0 1 12 16.763a4.77 4.77 0 0 1-4.767-4.776 4.78 4.78 0 0 1 3.511-4.608c.25-.068.484-.202.607-.429a2 2 0 0 0 .073-.143c.09-.192.116-.321.116-.383a1 1 0 0 0-.116-.393c-.086-.159-.21-.254-.359-.413" clip-rule="evenodd"></path><path fill="currentColor" fill-rule="evenodd" d="M11.609 1.89c-.154-.265-.467-.381-.772-.348A10.51 10.51 0 0 0 1.5 11.99C1.5 17.794 6.201 22.5 12 22.5s10.5-4.706 10.5-10.51c0-5.52-4.25-10.047-9.654-10.478a.01.01 0 0 0-.01.014c.098.21.26.386.26.784-.04.47-.144.565-.329.828l-.018.04a.01.01 0 0 0 .008.014 8.826 8.826 0 0 1 8.063 8.797c0 4.876-3.949 8.83-8.82 8.83s-8.82-3.954-8.82-8.83a8.83 8.83 0 0 1 7.522-8.734c.359-.053.758-.155.927-.476a1.2 1.2 0 0 0 .115-.496s-.027-.196-.115-.357z" clip-rule="evenodd"></path></svg>